<svg width="244" height="508" viewBox="0 0 244 508" fill="none" xmlns="http://www.w3.org/2000/svg">
<path d="M89.7579 502.872L94.4136 503.199L93.0015 504.496L92.889 503.526L90.3923 504.608L89.9625 503.74L86.7087 505.579L86.0538 504.496L89.7579 502.872ZM52.7067 505.15H52.1643L51.0797 471.285L54.3336 475.831V476.914L52.1643 478.64L51.9495 480.367L52.9215 481.235L56.0629 481.889L57.3624 485.781L59.0916 487.62L61.2609 489.244L61.1483 490.327L63.645 492.493L68.4133 495.414L70.91 498.663L76.548 501.472L77.8475 501.687L81.3162 501.145L82.6157 501.36L80.9888 505.579L80.1191 505.037L77.8475 506.447L77.6326 505.579H75.361L75.2485 506.549L72.4346 506.876L70.4802 507.745L68.2086 506.12L66.2542 505.579L57.1475 504.823L55.1931 504.067L54.9782 504.823L52.7067 505.15Z" fill="url(#paint0_linear_420_501)" fill-opacity="0.8" stroke="#2B2B2B" stroke-width="0.5" stroke-miterlimit="11" stroke-linecap="round" stroke-linejoin="round"/>
<path d="M120.864 286.179L119.994 287.364L118.48 286.496L119.35 284.442L120.864 286.179ZM121.294 283.799L119.994 281.419L120.209 280.663L121.396 281.419L121.294 283.799ZM123.136 265.952L123.678 267.362L122.051 266.606L120.967 264.982L123.136 265.952ZM170.164 189.897L170.818 192.707L168.322 194.116L169.734 195.414L169.304 197.794L168.434 198.448L168.219 200.613L169.406 201.696L171.136 200.072L172.977 201.696L176.446 203.208L180.56 206.457L183.701 210.349L184.888 213.056L184.673 214.026L181.747 217.49L181.204 221.382L182.391 224.303L186.075 227.654L188.029 227.542L188.786 228.41L188.459 235.336L188.132 236.521L185.318 239.872L182.933 243.549L179.577 246.9L176.866 250.149L176.211 253.397L175.454 254.368L168.414 258.045L157.363 261.182L147.397 262.693L135.691 264.103L132.437 264.318L129.081 263.776L127.996 264.205L122.041 262.796L120.527 260.844L117.815 260.732L118.47 262.898L117.928 265.063L119.012 267.444L121.611 269.17L121.181 269.824L119.554 268.2L118.582 268.312L121.079 270.478L120.209 276.106L118.04 275.892L117.068 281.95L115.554 283.36L116.311 285.74L117.283 286.394L118.255 288.774L116.843 292.022L112.29 294.403H111.42L110.765 292.778L107.951 289.744L104.81 289.09L105.465 267.995L106.877 217.04L107.306 202.003L107.634 193.023L108.064 192.482L114.131 192.696L128.436 193.238L138.3 182.961L139.057 181.234L141.984 181.561L143.611 182.644L144.583 182.215L145.34 180.049L147.182 177.669L147.069 176.913L149.126 179.079L152.267 181.245L153.239 182.654L155.296 183.839L156.381 183.625L157.895 185.035L159.522 184.922L160.709 186.649L162.336 186.761L166.562 190.224L170.164 189.897Z" fill="url(#paint1_linear_420_501)" fill-opacity="0.8" stroke="#2B2B2B" stroke-width="0.5" stroke-miterlimit="11" stroke-linecap="round" stroke-linejoin="round"/>
<path d="M20.7307 161.661L19.8609 161.232L19.1037 157.442L20.7307 156.36L19.7586 155.175L18.2442 155.062L15.9727 150.302L16.0852 146.512L17.1698 143.263L18.4693 143.59L19.8814 142.078L18.9093 140.781L19.1242 138.727L20.7512 132.016L22.593 132.445L24.2199 131.035L24.8748 128.226L23.2274 127.695L23.8822 125.314L23.6674 121.964L21.9381 116.662L22.0507 115.252L23.565 113.199L24.9771 112.443L24.8645 110.389L25.7343 108.122L25.6217 105.527L26.4915 104.342L26.7064 101.849L30.9323 103.034L33.3164 105.088L34.1862 107.468L36.6829 110.604L35.7108 112.555L36.5806 115.364L35.7108 118.398L36.2531 120.35L39.8242 119.696L44.8073 120.993L47.8463 123.588L50.1179 126.081L54.0164 129.217L54.9885 131.168L59.9716 136.357L61.3837 139.065L60.8414 140.689L61.5986 141.772L61.0563 145.991L61.8135 148.483L64.1976 150.108L64.6274 152.059L65.9269 153.898L62.673 154.112L58.0173 153.458L57.475 154.214V159.731L56.5029 159.077L51.8472 159.506L49.3505 156.911L44.5822 158.321L40.8986 161.243L38.187 161.13L37.8596 157.34L36.5601 157.453L34.9331 155.726L33.2039 157.136L31.1472 157.248L29.0905 158.433L28.8756 160.058L24.4348 161.355L20.7307 161.661Z" fill="url(#paint2_linear_420_501)" fill-opacity="0.8" stroke="#2B2B2B" stroke-width="0.5" stroke-miterlimit="11" stroke-linecap="round" stroke-linejoin="round"/>
<path d="M21.0582 219.972L21.6005 218.787L20.9456 216.08L21.7028 215.211L20.7307 212.831L20.8433 210.451L19.0015 205.905L20.8433 205.251L21.1707 201.901L22.0405 199.52L22.4702 196.272L24.4246 193.238L24.6395 191.399L27.1362 190.745L26.7064 186.853L26.0515 186.424V181.878L27.2385 177.547L25.6115 175.493L24.312 176.464L23.1251 174.84L22.9102 172.572L24.2097 170.079L22.3679 168.455L21.713 163.909L20.5261 161.529L23.9948 161.314L28.4357 160.017L28.6505 158.392L30.7072 157.207L32.7639 157.095L34.4932 155.685L36.1201 157.412L37.4196 157.299L37.7471 161.089L40.4587 161.202L44.1423 158.28L48.9105 156.87L51.4072 159.465L56.0629 159.036L57.035 159.69L58.8768 165.635L59.7466 167.26L59.3168 169.64L60.5038 177.863L62.1307 180.356L63.3177 183.707L65.7018 187.17L64.7297 189.662L64.8423 192.043L65.8144 195.506L67.871 199.071L68.7408 203.504L68.5259 209.133L67.2264 215.732L67.4413 216.488L47.4985 216.703L46.9562 218.654L47.3859 220.922L47.9282 240.393L45.759 240.178L44.4595 238.769L41.6456 237.798L38.5043 237.471L37.5322 235.418L35.4755 234.662L32.8765 235.203L31.1472 234.876L28.8757 232.823L28.9882 230.555L27.3613 229.37L25.5195 226.878L24.22 226.224L22.9204 223.19L21.9484 223.404L21.7335 220.912L21.0582 219.972Z" fill="url(#paint3_linear_420_501)" fill-opacity="0.8" stroke="#2B2B2B" stroke-width="0.5" stroke-miterlimit="11" stroke-linecap="round" stroke-linejoin="round"/>
<path d="M8.16535 295.485L8.27791 294.3L6.86584 291.052L7.73559 289.867L8.27791 286.516L9.68997 285.106L7.84815 283.155L7.9607 281.204L9.37276 281.419L9.91508 278.17L8.61557 275.677L8.94301 273.185L10.7848 273.726L10.4574 272.541L11.3271 270.917L11.8695 267.883L11.4397 263.337L13.4964 261.284L17.6098 259.23L17.7223 256.738L16.0954 255.226L15.4405 252.733L15.328 249.699L12.9438 244.295L13.4862 240.189L12.4015 238.023L13.701 235.101L12.1867 231.097L12.6164 228.716L13.4862 228.829L13.701 225.478L15.5429 224.068L17.5996 224.181L17.7121 221.8L19.2265 219.849L20.9558 219.635L21.9278 220.82L22.1427 223.312L23.1148 223.098L24.4143 226.132L25.7138 226.786L27.5556 229.278L29.1825 230.463L29.07 232.731L31.3416 234.784L33.0708 235.111L35.6698 234.57L37.7265 235.326L38.6986 237.379L41.8399 237.706L44.6538 238.677L45.9533 240.086L48.1226 240.301L48.45 257.177L50.9467 260.855L51.1616 261.937L48.45 262.367L47.6928 261.825L44.7664 264.093L42.0548 267.229L40.3255 270.151L36.8568 271.877L35.7722 273.828L33.8178 275.555L32.1908 275.667L28.937 278.047L27.8523 284.974L26.4403 286.812L23.8413 287.354L22.2143 286.812L20.5874 287.997L17.7735 288.753L16.0442 290.919L17.3437 293.085L16.0442 295.036L13.6601 295.792L11.3885 295.036L8.16535 295.485Z" fill="url(#paint4_linear_420_501)" fill-opacity="0.8" stroke="#2B2B2B" stroke-width="0.5" stroke-miterlimit="11" stroke-linecap="round" stroke-linejoin="round"/>
<path d="M48.2556 240.853L47.7133 221.382L47.2836 219.114L47.8259 217.163L67.7687 216.948H86.5143L86.6269 201.798L100.604 202.013L107.757 202.227L107.327 217.265L105.915 268.22L104.83 268.108L102.119 266.157L98.8647 263.235L93.2267 260.742L89.1133 259.986L85.6446 259.874L82.7181 260.415L80.1191 259.445L78.9321 260.099L75.7908 258.914L72.7518 258.587L70.6951 258.801L68.7408 258.26L67.6561 256.094L62.673 253.928L61.3735 251.007L56.9327 251.661L55.0908 249.28L53.3616 248.627V246.246L54.9885 244.295L54.5588 242.671L53.2592 241.588L48.2556 240.853Z" fill="url(#paint5_linear_420_501)" fill-opacity="0.8" stroke="#2B2B2B" stroke-width="0.5" stroke-miterlimit="11" stroke-linecap="round" stroke-linejoin="round"/>
<path d="M111.757 294.403L108.289 296.027L100.492 295.812L97.3503 293.32L96.0508 293.432L93.2369 291.92L89.6658 290.623L89.236 289.213L87.9365 288.672L85.225 290.623L84.5701 293.33L85.8696 300.042L86.6268 301.666L86.0845 303.392L86.4119 305.343L85.757 308.694L84.9999 308.48L10.2323 310.645L9.80251 308.592L8.07324 304.914L8.83043 303.944L8.07324 301.022V295.506L11.6443 295.618L13.9159 296.374L16.3 295.618L17.5995 293.667L16.3 291.501L18.0293 289.336L20.8432 288.58L22.4701 287.395L24.0971 287.936L26.6961 287.395L28.1081 285.556L29.1928 278.63L32.4466 276.25L34.0736 276.137L36.028 274.411L37.1126 272.46L40.5813 270.733L42.3106 267.811L45.0222 264.675L47.9486 262.407L48.7058 262.949L51.4174 262.52L51.2025 261.437L48.7058 257.759L48.3784 240.883L53.1466 241.425L54.4461 242.507L54.8759 244.132L53.249 246.083V248.463L54.9782 249.117L56.82 251.497L61.2609 250.843L62.5604 253.765L67.5435 255.931L68.6281 258.096L70.5825 258.638L72.6392 258.423L75.6782 258.75L78.8195 259.935L80.0065 259.281L82.6055 260.252L85.5319 259.711L89.0007 259.823L93.1141 260.579L98.7521 263.071L102.006 265.993L104.718 267.944L105.802 268.057L105.147 289.101L108.289 289.755L111.103 292.789L111.757 294.403Z" fill="url(#paint6_linear_420_501)" fill-opacity="0.8" stroke="#2B2B2B" stroke-width="0.5" stroke-miterlimit="11" stroke-linecap="round" stroke-linejoin="round"/>
<path d="M67.6561 216.836L67.4413 216.08L68.7408 209.481L68.9556 203.852L68.0859 199.418L66.0292 195.853L65.0571 192.39L64.9446 190.01L65.9166 187.517L63.5325 184.054L62.3456 180.703L60.7186 178.211L59.5317 169.987L59.9614 167.607L59.2042 165.88L57.3624 159.935V154.419L57.9047 153.663L62.5604 154.316L65.8143 154.102L67.4413 154.643L72.4244 154.756L74.4811 154L78.2773 154.214L80.4466 154.643L84.7851 157.677L85.4399 160.814L88.9087 160.599L89.5635 164.389L87.5068 172.939L86.2073 174.349L86.6371 185.923L86.5245 201.829L86.412 216.979L67.6561 216.836Z" fill="url(#paint7_linear_420_501)" fill-opacity="0.8" stroke="#2B2B2B" stroke-width="0.5" stroke-miterlimit="11" stroke-linecap="round" stroke-linejoin="round"/>
<path d="M107.644 202.013L100.492 201.798L86.5144 201.584L86.6269 185.678L86.1971 174.104L87.4967 172.694L89.5534 164.144L88.8985 160.354L85.4297 160.568L84.7749 157.432L80.4364 154.398L78.2671 153.969L78.1545 141.966L81.4084 131.474L83.0354 127.47L86.5041 126.285L89.1031 123.476L88.8883 119.369L89.8603 118.613L97.6574 116.662L100.799 117.418L100.911 118.286L104.053 120.237L108.606 120.452L109.905 122.291L123.995 122.618L124.65 123.159L126.492 128.563L125.837 133.211L129.193 137.542L125.295 150.741L123.995 152.151L124.323 156.043L123.78 158.75L125.622 160.589L126.277 162.642L127.464 163.827L128.436 167.178L129.623 169.446L129.081 172.04L127.024 173.665L114.561 192.594L108.493 192.38L108.064 192.921L107.644 202.013Z" fill="url(#paint8_linear_420_501)" fill-opacity="0.8" stroke="#2B2B2B" stroke-width="0.5" stroke-miterlimit="11" stroke-linecap="round" stroke-linejoin="round"/>
<path d="M89.983 118.603L89.011 119.359L89.2258 123.465L86.6268 126.275L83.1581 127.46L80.9888 122.914L78.8196 117.724L77.9498 113.934L73.6113 109.603L70.7974 108.193V106.027L68.9556 104.189L67.4412 101.052L62.2432 98.9991L60.6163 100.113L58.447 100.44L52.4918 100.225L50.8648 100.879L49.6779 98.9276L49.3505 96.9764L47.2938 97.5179L42.413 94.9231L42.5255 91.3579L37 92.2262L33.2039 92.0117L34.7182 87.0367L35.8029 86.1684L37.4298 81.837L40.3563 82.5929L41.226 81.1832L43.7227 80.6417L43.8352 78.047L40.3665 73.2865L40.2539 69.4965L42.3106 67.5454L41.1237 61.1606L40.2539 59.7509L39.5991 56.4002L41.0111 52.1812L50.4351 53.9076L66.9091 53.5807L67.564 53.6931L68.751 56.7271L68.0961 59.1073L65.0571 59.7611L64.085 60.5171L64.4125 63.1118L66.5817 66.1458L67.7687 68.6384L69.283 70.3649L70.1528 70.2525L71.9946 67.2185L74.2662 68.5159L72.9667 72.1935L77.0801 75.6565L76.7526 78.5782L72.4141 84.636L75.228 85.821L75.9852 89.7132L77.3973 92.0934L79.0242 92.3079L79.454 94.2591L80.866 95.8834L81.6232 94.4736L83.905 92.9719L86.0743 93.6257L87.2612 99.2545V102.391L85.9617 104.883L86.9338 105.639L87.8035 114.731L89.983 118.603Z" fill="url(#paint9_linear_420_501)" fill-opacity="0.8" stroke="#2B2B2B" stroke-width="0.5" stroke-miterlimit="11" stroke-linecap="round" stroke-linejoin="round"/>
<path d="M78.2773 154.092L74.4811 153.877L72.4244 154.633L67.4413 154.521L65.8143 153.979L64.5148 152.141L64.0851 150.189L61.7009 148.565L60.9335 146.083L61.4758 141.864L60.7186 140.781L61.2609 139.157L59.8489 136.449L54.8657 131.26L53.8937 129.309L49.9952 126.173L47.7236 123.68L44.6846 121.085L39.7014 119.788L36.1304 120.442L35.5778 118.501L36.4476 115.467L35.5778 112.657L36.5499 110.706L34.0532 107.57L33.1834 105.19L30.7993 103.136L26.5734 101.951L29.6124 99.0298L31.1267 95.6791L32.856 94.494L33.2858 92.1138L37.082 92.3283L42.6074 91.46L42.4949 95.0253L47.3757 97.62L49.4324 97.0786L49.7598 99.0298L50.9468 100.981L52.5737 100.327L58.5289 100.542L60.6982 100.215L62.3251 99.1319L67.5231 101.185L69.0375 104.321L70.8793 106.16V108.326L73.6932 109.736L78.0317 114.067L78.9015 117.857L81.0707 123.047L83.24 127.593L81.613 131.597L78.3592 142.088L78.2773 154.092Z" fill="url(#paint10_linear_420_501)" fill-opacity="0.8" stroke="#2B2B2B" stroke-width="0.5" stroke-miterlimit="11" stroke-linecap="round" stroke-linejoin="round"/>
<path d="M74.4811 68.3013L72.2095 67.0039L70.3677 70.038L69.4979 70.1503L67.9835 68.4239L66.7966 65.9313L64.6273 62.8973L64.2999 60.3025L65.272 59.5466L68.311 58.8928L68.9658 56.5126L67.7789 53.4785L67.124 53.3662L50.5477 53.6931L41.1237 51.9666L42.7506 51.5376L41.3386 47.9723L40.0391 46.0212L41.0111 43.5286L44.4799 40.0655L56.6154 34.5491L58.1298 30.0031L60.2991 31.4129L63.5529 34.9781L66.0496 37.0315L68.4338 37.5729L70.4905 34.6512L70.7053 29.7784L69.7333 27.1836L70.3881 24.3744L72.8848 25.1303L75.3815 26.9691L74.8392 30.5344L75.1666 33.027L78.5228 35.0803V36.2653L80.907 40.0553L85.2455 41.5672L86.6575 40.8112L88.6119 42.5377L90.4537 42.9667L91.6407 40.9134L94.2397 43.2936L95.9689 41.3424L98.568 40.3719L100.737 36.9089L100.379 26.6524L98.2098 26.5401L96.9103 28.2665L93.8713 25.7739L90.8323 26.3153L89.6454 23.3937L88.5607 22.7399L88.6733 18.9499L86.504 18.623L85.532 16.5697V13.3211L84.4473 12.6673L85.9617 8.66281L86.7189 5.19973H89.1031L94.956 6.824L95.1708 8.77518L97.1252 11.8092L96.7978 13.3211L97.9847 14.7309L98.3122 16.7842L99.6117 11.9114L100.911 10.3995L103.95 3.80019L106.877 4.55615L108.289 3.80019L119.994 4.12709L120.209 5.85352L122.593 8.01923L122.379 8.67302L126.39 11.4823L126.062 27.9294L125.847 36.582V40.9134L110.785 59.6283L103.633 59.4138L99.7344 58.6578L96.6954 65.0426L95.8257 67.9642L92.0295 67.7497L89.3179 68.5056L85.2045 66.8814L84.5497 65.4716L82.8204 66.1254L79.7814 65.4716L79.1265 68.8223L74.4811 68.3013Z" fill="url(#paint11_linear_420_501)" fill-opacity="0.8" stroke="#2B2B2B" stroke-width="0.5" stroke-miterlimit="11" stroke-linecap="round" stroke-linejoin="round"/>
<path d="M89.9831 118.603L88.0287 114.598L87.159 105.506L86.1869 104.75L87.4864 102.258V99.1217L86.2994 93.4929L87.5989 93.166L88.571 91.5417L87.5989 89.1615L88.8984 87.5372L87.5989 86.8834L90.0956 84.3908L92.1523 79.518L92.8072 76.9233L94.1067 74.9721L95.1913 74.8597L94.9765 71.1821L95.5188 67.8314L96.3885 64.9097L99.4275 58.525L103.326 59.281L110.478 59.4955L132.908 60.1493L133.235 61.559L133.123 69.3433L132.253 95.9549L129.756 109.909L126.185 128.624L124.343 123.21L123.688 122.669L109.598 122.342L108.299 120.503L103.746 120.288L100.604 118.337L100.492 117.469L97.3504 116.713L89.9831 118.603Z" fill="url(#paint12_linear_420_501)" fill-opacity="0.8" stroke="#2B2B2B" stroke-width="0.5" stroke-miterlimit="11" stroke-linecap="round" stroke-linejoin="round"/>
<path d="M86.4018 93.5134L84.2325 92.8596L81.9609 94.3715L81.2037 95.7812L79.7917 94.1569L79.3619 92.2058L77.735 91.9912L76.3229 89.611L75.5657 85.7189L72.7518 84.5339L77.0903 78.476L77.4178 75.5544L73.3044 72.0913L74.6039 68.4137L79.2596 69.0675L79.9145 65.7168L82.9535 66.3706L84.6827 65.7168L85.3376 67.1265L89.451 68.7508L92.1625 67.9949L95.9587 68.2094L95.4164 71.5601L95.6313 75.2377L94.5467 75.3501L93.2472 77.3012L92.5923 79.896L90.5356 84.7688L88.0389 87.2614L89.3384 87.9152L88.0389 89.5395L89.011 91.9197L88.0389 93.544H86.4018V93.5134Z" fill="url(#paint13_linear_420_501)" fill-opacity="0.8" stroke="#2B2B2B" stroke-width="0.5" stroke-miterlimit="11" stroke-linecap="round" stroke-linejoin="round"/>
<path d="M110.673 59.5364L125.735 40.8214V36.49L129.746 38.0019L131.7 39.7284L133.43 40.0553L134.944 42.221L136.243 42.4355L137.87 44.4888L140.469 45.0302L142.096 46.2153L142.751 48.5955L148.819 53.2436L150.661 53.8974L152.503 56.39L154.774 61.1504L156.729 61.8042L159 63.7554L161.497 66.7894V68.4137L164.966 69.7111L165.293 71.223L166.592 72.1934L168.434 71.5396L170.931 73.2661L172.118 74.8904L175.914 77.9244L178.728 81.1729L177.214 81.7144L176.344 83.6655L174.287 85.0753L174.83 87.5679L170.818 89.8357L171.473 94.3817L170.604 97.8447L145.36 96.5474L132.468 96.006L133.337 69.3944L133.45 61.6101L133.123 60.2004L110.673 59.5364Z" fill="url(#paint14_linear_420_501)" fill-opacity="0.8" stroke="#2B2B2B" stroke-width="0.5" stroke-miterlimit="11" stroke-linecap="round" stroke-linejoin="round"/>
<path d="M125.847 36.5002L126.062 27.8476L126.39 11.4006L127.904 12.698L128.774 15.1906L131.588 20.1655L133.102 21.136L134.402 23.3017L136.243 24.2722L137.758 26.2234L140.469 27.4084L142.966 29.3596L144.266 32.3936L146.537 33.4764L149.893 34.1302L150.108 34.6716L153.577 35.8567L157.69 35.969L165.385 41.7L167.012 43.7533L171.565 46.348L174.062 48.5138L178.616 49.9235L180.672 52.3037L181.972 51.5478L185.113 53.8156L186.413 53.928L188.142 55.6544L190.638 60.088L189.554 62.4682L187.712 63.2242L186.955 65.6044L185.328 67.5556L185.758 68.3115L182.719 69.9358L181.634 71.7746L180.12 79.2422L178.605 81.081L175.791 77.8324L171.995 74.7984L170.808 73.1741L168.312 71.4477L166.47 72.1015L165.17 71.131L164.843 69.6191L161.374 68.3217V66.6975L158.877 63.6634L156.606 61.7123L154.651 61.0585L152.38 56.298L150.538 53.8054L148.696 53.1516L142.628 48.5035L141.974 46.1233L140.347 44.9383L137.748 44.3969L136.121 42.3435L134.821 42.129L133.307 39.9633L131.578 39.6364L129.623 37.91L125.847 36.5002Z" fill="url(#paint15_linear_420_501)" fill-opacity="0.8" stroke="#2B2B2B" stroke-width="0.5" stroke-miterlimit="11" stroke-linecap="round" stroke-linejoin="round"/>
<path d="M170.706 97.7324L171.576 94.2693L170.921 89.7234L174.932 87.4555L176.231 86.9141L182.841 87.0265L187.18 88.4362L189.349 89.7336L192.061 89.9481L194.015 91.2455L197.811 90.4895L199.438 92.0014L202.579 91.46L204.851 93.6257L206.263 90.7041L208.432 89.5191L210.602 90.1729L209.732 92.0117L211.359 96.2307L211.574 99.1523L212.761 101.747L214.173 103.157L212.003 104.342L213.303 105.966L212.648 107.151L210.919 106.068L210.049 107.795L208.422 108.224L208.095 109.634L205.711 111.799L204.299 112.228L203.971 113.74L202.242 116.233L199.428 117.745L198.456 119.91L192.388 126.295L189.677 127.051L189.022 129.544L186.423 131.812L184.581 132.465L184.253 134.519L181.542 136.684L180.887 138.196L181.757 140.689L179.587 138.309L178.718 135.499L176.446 132.465L171.678 130.953L168.322 131.924L166.695 131.495L163.441 133.446L161.599 132.792L158.028 133.119L159.113 128.144L158.355 126.091L159.542 122.086L159.757 119.052L160.944 116.018L163.001 115.15L165.272 113.424L165.385 111.912L166.899 108.019L167.554 104.015V99.9083L169.396 99.2545L170.706 97.7324Z" fill="url(#paint16_linear_420_501)" fill-opacity="0.8" stroke="#2B2B2B" stroke-width="0.5" stroke-miterlimit="11" stroke-linecap="round" stroke-linejoin="round"/>
<path d="M158.141 132.782L161.712 132.455L163.553 133.109L166.807 131.158L168.434 131.587L171.79 130.616L176.559 132.128L178.83 135.162L179.7 137.972L181.869 140.352L181.654 142.844L180.242 143.386L180.897 145.112L180.028 147.921L177.531 151.272L178.615 152.682L177.428 156.472L175.914 156.901V160.252L175.259 161.661L176.231 164.154L174.502 166.749L174.829 175.401L173.53 176.055L171.801 175.514L171.146 178.977L169.631 181.143L168.977 184.708L169.846 187.2L169.959 189.795L167.032 190.01L162.806 186.547L161.18 186.434L159.993 184.708L158.366 184.82L156.851 183.41L155.767 183.625L153.71 182.44L152.738 181.03L149.597 178.864L147.54 176.699L145.043 174.533L142.986 170.202L142.014 165.554L142.986 159.925L143.641 157.974L142.986 156.349L144.173 152.886L147.212 152.345L151.653 147.697L157.834 138.503L158.591 134.171L158.141 132.782Z" fill="url(#paint17_linear_420_501)" fill-opacity="0.8" stroke="#2B2B2B" stroke-width="0.5" stroke-miterlimit="11" stroke-linecap="round" stroke-linejoin="round"/>
<path d="M15.7475 371.54L15.4303 369.804L13.8033 367.75L14.0182 365.156L16.5149 364.185L16.6275 362.459L18.5818 360.732L15.328 355.972L13.4861 355.43L12.0741 355.757L10.1197 355.216L10.2323 352.948L12.4015 353.275L16.1977 352.304L18.0395 353.06L19.0116 352.09L18.899 350.68L20.086 348.627L19.0014 347.115L16.5047 346.9L12.3913 347.227V344.418L11.7364 342.692L12.7085 341.936L13.6806 339.77L11.9513 336.848L12.9234 335.878L12.5959 334.693L10.8667 333.937L10.1095 332.752L10.3244 330.586L11.9513 330.045V328.42L8.91229 327.552L7.28535 325.826L7.50023 323.66L6.84537 319.553L7.92999 317.929L6.74304 314.466L7.61279 312.627L8.69742 312.954L10.969 311.442L10.5392 310.257L85.3068 308.091L86.064 308.306L88.2333 311.115L92.3467 312.086L91.0574 314.64L92.7867 315.069L96.3577 314.956L97.2275 313.986L97.0126 312.474L94.5159 312.259L100.041 309.552L101.126 310.523L102.426 313.771V317.561L101.883 319.942L100.584 321.024L96.4703 321.78L94.9559 320.054L95.6108 318.103L92.8992 315.937L90.9448 316.049L87.1487 318.103L86.4938 320.054L90.3923 322.322L92.7764 323.078L94.0759 322.649L92.5615 324.375L88.9905 325.56L86.064 327.828V329.013L82.7078 333.559L82.8204 335.939L83.905 340.587L82.9329 342.099L83.905 344.061L82.6055 345.572L81.9506 347.626L80.3237 347.953L78.6968 349.362L78.3693 351.743L79.8837 352.172L79.4539 354.664L78.0419 354.011L75.7703 354.337L73.2736 353.581L68.9351 356.289L69.59 357.474L65.9063 357.8L63.8496 359.527L61.0358 363.634L60.606 366.443L59.7363 366.984L58.4367 369.691L50.1997 369.906L15.7475 371.54Z" fill="url(#paint18_linear_420_501)" fill-opacity="0.8" stroke="#2B2B2B" stroke-width="0.5" stroke-miterlimit="11" stroke-linecap="round" stroke-linejoin="round"/>
<path d="M114.571 192.717L127.034 173.787L129.091 172.163L129.633 169.568L128.446 167.3L127.474 163.95L126.287 162.765L125.632 160.711L123.791 158.873L124.333 156.165L124.005 152.273L125.305 150.864L129.204 137.665L125.847 133.334L126.502 128.686L130.073 109.971L132.57 96.0162L145.463 96.5576L170.706 97.855L169.406 99.4792L167.564 100.133V103.923L166.91 107.928L165.395 111.82L165.283 113.332L163.011 115.058L160.954 115.926L159.757 118.96L159.542 121.994L158.355 125.999L159.113 128.052L158.028 133.027L158.458 134.754L157.701 139.085L151.52 148.279L147.079 152.927L144.04 153.469L142.853 156.932L143.508 158.556L142.853 160.507L141.881 166.136L142.853 170.784L144.91 175.115L147.407 177.281L147.519 178.037L145.678 180.417L144.92 182.583L143.948 183.012L142.321 181.929L139.395 181.602L138.638 183.329L128.774 193.606L114.571 192.717Z" fill="url(#paint19_linear_420_501)" fill-opacity="0.8" stroke="#2B2B2B" stroke-width="0.5" stroke-miterlimit="11" stroke-linecap="round" stroke-linejoin="round"/>
<path d="M210.581 90.1524L213.293 92.1036L215.677 90.4793L215.789 87.9867L217.744 87.1184L218.286 85.4941L220.455 84.7382L222.41 85.2796L222.737 83.8699L224.906 82.8994L226.093 81.0606L227.608 80.9482L227.823 79.2218L229.122 78.0368L230.422 74.3592V71.0085L231.721 68.5158L231.066 66.5647L231.823 64.8382L233.665 66.0232L234.535 65.2673L238.761 64.1844L238.434 64.9404L241.247 66.4523L242.005 69.2616L241.892 71.8563L243.734 75.8608L242.762 78.2411L242.005 83.1139L242.22 85.9232L240.05 90.2546L238.423 89.9277L236.469 91.7665L235.384 91.0105L233.655 93.7177L232.898 93.0639L230.299 94.2489L225.203 95.8732L224.876 97.5996L222.604 98.0286L223.259 98.9991L219.248 99.7551L217.406 102.135L214.152 103.106L212.74 101.696L211.553 99.1013L211.338 96.1796L209.711 91.9606L210.581 90.1524Z" fill="url(#paint20_linear_420_501)" fill-opacity="0.8" stroke="#2B2B2B" stroke-width="0.5" stroke-miterlimit="11" stroke-linecap="round" stroke-linejoin="round"/>
<path d="M58.5494 369.589L58.222 372.082L59.4089 376.188L60.4935 378.14L63.5325 380.193L67.1036 384.739L73.1714 385.924L75.443 385.597L77.8271 387.65L77.9397 392.298L76.7527 395.864L76.6402 397.917L75.4532 400.512L76.1081 400.941L73.8365 401.911L72.2096 403.638L71.7798 405.15L68.6385 406.335L66.4692 408.715L63.9725 410.012L63.2153 412.28L61.1586 413.731L59.7466 415.457L59.2043 417.95L57.2499 421.3H58.1196L58.9894 419.135L58.2322 427.358L57.2601 429.953L54.9886 432.006L52.4919 432.548L50.5375 429.841L49.1254 427.134L49.7803 430.382L52.277 432.977L51.4072 433.845L47.1813 436.011L45.452 439.576L44.7972 442.385L45.012 444.878L42.7405 447.258L44.7972 446.073L46.0967 451.263L47.0687 453.97L46.9562 455.053L45.6567 455.706L44.0297 455.053L40.8884 456.136L43.8149 455.482L47.2836 456.136L49.7803 461.437L52.9216 465.983L48.6957 465.115L45.012 463.705H42.5154L38.0745 462.081L19.7587 463.051L19.2164 461.213L18.0294 460.028L15.9727 458.945L15.103 457.218L14.1309 456.892L15.0006 455.594L15.5429 451.804L14.0286 449.751L14.8983 448.78V445.746L14.1411 444.663L14.356 442.937L12.2788 442.396L11.3068 443.478L9.67983 442.937L6.86594 445.532L5.99619 445.317L4.91157 442.396L3.9395 438.064L1.77024 436.338L2.09768 434.499L1.01305 433.314L1.77024 430.505L0.255859 427.154L1.22793 423.589L4.36925 423.262L3.9395 422.291L5.239 418.399L7.73569 416.989L9.03519 415.038L8.70776 409.849L11.4193 407.795L10.5496 403.791L8.38032 401.625L10.0073 396.65V393.943L11.6342 393.514L12.9337 391.348L14.5606 389.724L12.9337 387.885L13.3635 384.095L15.8602 382.257L15.6453 379.662L14.5606 375.443L12.9337 374.145L14.3458 373.389L15.5327 371.663L50.0975 369.937L58.5494 369.589Z" fill="url(#paint21_linear_420_501)" fill-opacity="0.8" stroke="#2B2B2B" stroke-width="0.5" stroke-miterlimit="11" stroke-linecap="round" stroke-linejoin="round"/>
<path d="M57.9048 29.901L61.1587 18.7558L58.662 16.0487L60.8312 13.5561V11.5027L64.3 9.99083L64.9549 6.85465L70.0506 5.34274L71.1352 4.15774L71.8924 0.265605L73.9491 0.919402L74.6039 2.21678L76.2309 2.54368L78.8299 5.13843L81.1015 4.70938L86.5144 4.92391L85.7572 8.38698L84.2428 12.3915L85.3274 13.0453V16.2938L86.2995 18.3472L88.4687 18.6741L88.3562 22.464L89.4408 23.1178L90.6278 26.0395L93.6668 25.4981L96.7058 27.9907L98.0053 26.2642L100.175 26.3766L100.502 36.6535L98.3327 40.1166L95.7337 41.087L94.0044 43.0382L91.4054 40.658L90.2185 42.7113L88.3766 42.2823L86.4223 40.5558L85.0102 41.3118L80.6717 39.7999L78.2773 35.9588V34.7738L74.9211 32.7205L74.5937 30.2279L75.136 26.6626L72.6393 24.8238L70.1426 24.0679L69.4878 26.8772L70.4598 29.4719L70.245 34.3448L68.1883 37.2664L65.8041 36.725L63.3075 34.6717L60.0536 31.1064L57.9048 29.901Z" fill="url(#paint22_linear_420_501)" fill-opacity="0.8" stroke="#2B2B2B" stroke-width="0.5" stroke-miterlimit="11" stroke-linecap="round" stroke-linejoin="round"/>
<defs>
<linearGradient id="paint0_linear_420_501" x1="51.0766" y1="489.513" x2="94.4208" y2="489.513" gradientUnits="userSpaceOnUse">
<stop stop-color="#009D62"/>
<stop offset="1" stop-color="#1262AD"/>
</linearGradient>
<linearGradient id="paint1_linear_420_501" x1="104.823" y1="235.662" x2="188.803" y2="235.662" gradientUnits="userSpaceOnUse">
<stop stop-color="#009D62"/>
<stop offset="1" stop-color="#1262AD"/>
</linearGradient>
<linearGradient id="paint2_linear_420_501" x1="15.9679" y1="131.752" x2="65.9221" y2="131.752" gradientUnits="userSpaceOnUse">
<stop stop-color="#009D62"/>
<stop offset="1" stop-color="#1262AD"/>
</linearGradient>
<linearGradient id="paint3_linear_420_501" x1="19.0021" y1="198.068" x2="68.7394" y2="198.068" gradientUnits="userSpaceOnUse">
<stop stop-color="#009D62"/>
<stop offset="1" stop-color="#1262AD"/>
</linearGradient>
<linearGradient id="paint4_linear_420_501" x1="6.86564" y1="257.731" x2="51.185" y2="257.731" gradientUnits="userSpaceOnUse">
<stop stop-color="#009D62"/>
<stop offset="1" stop-color="#1262AD"/>
</linearGradient>
<linearGradient id="paint5_linear_420_501" x1="47.2841" y1="235.012" x2="107.749" y2="235.012" gradientUnits="userSpaceOnUse">
<stop stop-color="#009D62"/>
<stop offset="1" stop-color="#1262AD"/>
</linearGradient>
<linearGradient id="paint6_linear_420_501" x1="8.05748" y1="275.743" x2="111.758" y2="275.743" gradientUnits="userSpaceOnUse">
<stop stop-color="#009D62"/>
<stop offset="1" stop-color="#1262AD"/>
</linearGradient>
<linearGradient id="paint7_linear_420_501" x1="57.3616" y1="185.302" x2="89.5446" y2="185.302" gradientUnits="userSpaceOnUse">
<stop stop-color="#009D62"/>
<stop offset="1" stop-color="#1262AD"/>
</linearGradient>
<linearGradient id="paint8_linear_420_501" x1="78.1668" y1="159.338" x2="129.638" y2="159.338" gradientUnits="userSpaceOnUse">
<stop stop-color="#009D62"/>
<stop offset="1" stop-color="#1262AD"/>
</linearGradient>
<linearGradient id="paint9_linear_420_501" x1="33.1972" y1="89.8308" x2="89.978" y2="89.8308" gradientUnits="userSpaceOnUse">
<stop stop-color="#009D62"/>
<stop offset="1" stop-color="#1262AD"/>
</linearGradient>
<linearGradient id="paint10_linear_420_501" x1="26.5873" y1="123.043" x2="83.2597" y2="123.043" gradientUnits="userSpaceOnUse">
<stop stop-color="#009D62"/>
<stop offset="1" stop-color="#1262AD"/>
</linearGradient>
<linearGradient id="paint11_linear_420_501" x1="40.0239" y1="36.9834" x2="126.387" y2="36.9834" gradientUnits="userSpaceOnUse">
<stop stop-color="#009D62"/>
<stop offset="1" stop-color="#1262AD"/>
</linearGradient>
<linearGradient id="paint12_linear_420_501" x1="86.1855" y1="93.6172" x2="133.214" y2="93.6172" gradientUnits="userSpaceOnUse">
<stop stop-color="#009D62"/>
<stop offset="1" stop-color="#1262AD"/>
</linearGradient>
<linearGradient id="paint13_linear_420_501" x1="72.7488" y1="80.7435" x2="95.9379" y2="80.7435" gradientUnits="userSpaceOnUse">
<stop stop-color="#009D62"/>
<stop offset="1" stop-color="#1262AD"/>
</linearGradient>
<linearGradient id="paint14_linear_420_501" x1="110.675" y1="67.1665" x2="178.725" y2="67.1665" gradientUnits="userSpaceOnUse">
<stop stop-color="#009D62"/>
<stop offset="1" stop-color="#1262AD"/>
</linearGradient>
<linearGradient id="paint15_linear_420_501" x1="125.845" y1="46.2331" x2="190.645" y2="46.2331" gradientUnits="userSpaceOnUse">
<stop stop-color="#009D62"/>
<stop offset="1" stop-color="#1262AD"/>
</linearGradient>
<linearGradient id="paint16_linear_420_501" x1="158.028" y1="113.793" x2="214.159" y2="113.793" gradientUnits="userSpaceOnUse">
<stop stop-color="#009D62"/>
<stop offset="1" stop-color="#1262AD"/>
</linearGradient>
<linearGradient id="paint17_linear_420_501" x1="141.991" y1="160.312" x2="181.868" y2="160.312" gradientUnits="userSpaceOnUse">
<stop stop-color="#009D62"/>
<stop offset="1" stop-color="#1262AD"/>
</linearGradient>
<linearGradient id="paint18_linear_420_501" x1="6.75726" y1="339.788" x2="102.439" y2="339.788" gradientUnits="userSpaceOnUse">
<stop stop-color="#009D62"/>
<stop offset="1" stop-color="#1262AD"/>
</linearGradient>
<linearGradient id="paint19_linear_420_501" x1="114.576" y1="144.788" x2="170.706" y2="144.788" gradientUnits="userSpaceOnUse">
<stop stop-color="#009D62"/>
<stop offset="1" stop-color="#1262AD"/>
</linearGradient>
<linearGradient id="paint20_linear_420_501" x1="209.716" y1="83.6644" x2="243.741" y2="83.6644" gradientUnits="userSpaceOnUse">
<stop stop-color="#009D62"/>
<stop offset="1" stop-color="#1262AD"/>
</linearGradient>
<linearGradient id="paint21_linear_420_501" x1="0.255859" y1="417.787" x2="77.9501" y2="417.787" gradientUnits="userSpaceOnUse">
<stop stop-color="#009D62"/>
<stop offset="1" stop-color="#1262AD"/>
</linearGradient>
<linearGradient id="paint22_linear_420_501" x1="57.9035" y1="21.6215" x2="100.489" y2="21.6215" gradientUnits="userSpaceOnUse">
<stop stop-color="#009D62"/>
<stop offset="1" stop-color="#1262AD"/>
</linearGradient>
</defs>
</svg>
